<?xml version="1.0" encoding="UTF-8"?>
<svg width="665px" height="665px" viewBox="0 0 665 665" version="1.1" xmlns="http://www.w3.org/2000/svg" xmlns:xlink="http://www.w3.org/1999/xlink">
    <!-- Generator: Sketch 50 (54983) - http://www.bohemiancoding.com/sketch -->
    <title>ico</title>
    <desc>Created with Sketch.</desc>
    <defs></defs>
    <g id="浅色" stroke="none" stroke-width="1" fill="none" fill-rule="evenodd">
        <g id="首页-odin" transform="translate(-800.000000, -1.000000)" fill="#E8F1FF">
            <g id="齿轮" transform="translate(255.000000, -216.000000)">
                <g id="ico-齿轮" transform="translate(545.000000, 217.000000)">
                    <path d="M186.504792,566.966166 L128.818813,595.331279 C106.841948,578.275422 87.0623542,558.523987 69.974625,536.573492 L98.0861146,478.559791 C83.4685833,455.184747 72.2383958,429.472338 65.0882604,402.109942 L3.66442708,382.033489 C1.25103125,365.87247 0,349.332493 0,332.499308 C0,321.650611 0.51953125,310.923622 1.53504167,300.341854 L61.3407083,277.947398 C67.6720625,245.832819 79.5533958,215.709841 95.9414896,188.62129 L68.19575,130.729297 C84.0019688,110.056747 102.17725,91.292815 122.317052,74.8441201 L180.331375,100.703134 C208.519063,82.0249512 240.322688,68.3644989 274.467667,60.9983383 L296.053844,1.97362209 C308.022458,0.669399504 320.183646,0 332.5,0 C347.071813,0 361.424729,0.936329471 375.500563,2.7550492 L396.568594,62.0480784 C426.713875,69.1016682 454.965292,81.0775573 480.427865,97.0822908 L536.181188,69.6673384 C558.158052,86.7231952 577.939031,106.47463 595.02676,128.425125 L567.867052,184.472119 C583.030438,208.567735 594.584813,235.161152 601.77374,263.49722 L661.335573,282.965128 C663.748969,299.126147 665,315.666124 665,332.499308 C665,343.348006 664.480469,354.074995 663.464958,364.656763 L604.859063,386.603108 C598.340677,419.121541 586.129615,449.583367 569.310656,476.902889 L596.80425,534.26932 C580.999417,554.94187 562.824135,573.705802 542.682948,590.154497 L484.302875,564.132283 C456.280052,582.40108 424.745198,595.735131 390.934104,602.903515 L368.947542,663.024995 C356.977542,664.329217 344.81774,665 332.5,665 C317.929573,665 303.576656,664.062287 289.499438,662.244951 L267.799656,601.171927 C238.626937,594.114188 211.256646,582.439806 186.504792,566.966166 Z M333.5,551 C453.622531,551 551,453.62148 551,333.5 C551,213.37852 453.622531,116 333.5,116 C213.378828,116 116,213.37852 116,333.5 C116,453.62148 213.378828,551 333.5,551 Z"></path>
                </g>
            </g>
        </g>
    </g>
</svg>